<svg xmlns="http://www.w3.org/2000/svg"  viewBox="0 0 32 32" width="32px" height="32px"><path d="M 5 4 L 5 6 L 24.585938 6 L 25 6.4140625 L 25 25.585938 L 24.585938 26 L 5 26 L 5 28 L 25.414062 28 L 27 26.414062 L 27 5.5859375 L 25.414062 4 L 5 4 z M 18.060547 10.746094 C 17.236631 12.365446 16.250932 13.648852 15.257812 14.761719 C 14.52465 14.26753 13.385858 13.318885 12.384766 10.900391 L 10.537109 11.664062 C 11.558469 14.131519 12.847593 15.388285 13.863281 16.171875 C 12.038611 17.855476 10.496094 18.753906 10.496094 18.753906 L 11.425781 20.525391 C 11.425781 20.525391 16.737753 17.755095 19.841797 11.654297 L 18.060547 10.746094 z M 18.501953 17.380859 L 17.335938 19.005859 C 18.820746 20.069153 20.783203 20.861328 20.783203 20.861328 L 21.548828 19.013672 C 21.548828 19.013672 19.673143 18.219566 18.501953 17.380859 z"/></svg>